<mxfile host="app.diagrams.net" modified="2023-04-15T21:19:47.161Z" agent="Mozilla/5.0 (Macintosh; Intel Mac OS X 10_15_7) AppleWebKit/605.1.15 (KHTML, like Gecko) Version/16.4 Safari/605.1.15" etag="VU6VeQ-qCV3cRvn8ebJM" version="21.1.8" type="github">
  <diagram name="Page-1" id="wcoBjHvXgBKuY1BlQ7IX">
    <mxGraphModel dx="954" dy="675" grid="1" gridSize="10" guides="1" tooltips="1" connect="1" arrows="1" fold="1" page="1" pageScale="1" pageWidth="827" pageHeight="1169" math="0" shadow="0">
      <root>
        <mxCell id="0" />
        <mxCell id="1" parent="0" />
        <mxCell id="1FKGHby47MiAxsP9Uc5e-16" value="" style="group" parent="1" vertex="1" connectable="0">
          <mxGeometry x="140" y="40" width="500" height="462" as="geometry" />
        </mxCell>
        <mxCell id="1FKGHby47MiAxsP9Uc5e-12" value="" style="group" parent="1FKGHby47MiAxsP9Uc5e-16" vertex="1" connectable="0">
          <mxGeometry x="30" width="155" height="150" as="geometry" />
        </mxCell>
        <mxCell id="1FKGHby47MiAxsP9Uc5e-1" value="" style="rounded=0;whiteSpace=wrap;html=1;fillColor=#FFFFCC;" parent="1FKGHby47MiAxsP9Uc5e-12" vertex="1">
          <mxGeometry x="10" width="140" height="150" as="geometry" />
        </mxCell>
        <mxCell id="1FKGHby47MiAxsP9Uc5e-2" value="FSM" style="text;html=1;align=center;verticalAlign=middle;resizable=0;points=[];autosize=1;strokeColor=none;fillColor=none;" parent="1FKGHby47MiAxsP9Uc5e-12" vertex="1">
          <mxGeometry x="55" y="-8" width="50" height="30" as="geometry" />
        </mxCell>
        <mxCell id="1FKGHby47MiAxsP9Uc5e-3" value="DIN" style="text;html=1;align=center;verticalAlign=middle;resizable=0;points=[];autosize=1;strokeColor=none;fillColor=none;" parent="1FKGHby47MiAxsP9Uc5e-12" vertex="1">
          <mxGeometry x="10" y="22" width="40" height="30" as="geometry" />
        </mxCell>
        <mxCell id="1FKGHby47MiAxsP9Uc5e-6" value="READ_EN" style="text;html=1;align=center;verticalAlign=middle;resizable=0;points=[];autosize=1;strokeColor=none;fillColor=none;" parent="1FKGHby47MiAxsP9Uc5e-12" vertex="1">
          <mxGeometry x="70" y="22" width="80" height="30" as="geometry" />
        </mxCell>
        <mxCell id="1FKGHby47MiAxsP9Uc5e-7" value="CLK_CNT_EN" style="text;html=1;align=center;verticalAlign=middle;resizable=0;points=[];autosize=1;strokeColor=none;fillColor=none;" parent="1FKGHby47MiAxsP9Uc5e-12" vertex="1">
          <mxGeometry x="50" y="42" width="100" height="30" as="geometry" />
        </mxCell>
        <mxCell id="1FKGHby47MiAxsP9Uc5e-8" value="DOUT_VALID" style="text;html=1;align=center;verticalAlign=middle;resizable=0;points=[];autosize=1;strokeColor=none;fillColor=none;" parent="1FKGHby47MiAxsP9Uc5e-12" vertex="1">
          <mxGeometry x="50" y="62" width="100" height="30" as="geometry" />
        </mxCell>
        <mxCell id="1FKGHby47MiAxsP9Uc5e-85" style="edgeStyle=orthogonalEdgeStyle;rounded=0;orthogonalLoop=1;jettySize=auto;html=1;endArrow=oval;endFill=1;exitX=0.003;exitY=0.639;exitDx=0;exitDy=0;exitPerimeter=0;strokeColor=#FF0000;" parent="1FKGHby47MiAxsP9Uc5e-12" source="1FKGHby47MiAxsP9Uc5e-10" edge="1">
          <mxGeometry relative="1" as="geometry">
            <mxPoint x="260" y="210" as="targetPoint" />
            <Array as="points">
              <mxPoint y="129" />
              <mxPoint y="210" />
            </Array>
          </mxGeometry>
        </mxCell>
        <mxCell id="1FKGHby47MiAxsP9Uc5e-9" value="BIT_CNT" style="text;html=1;align=center;verticalAlign=middle;resizable=0;points=[];autosize=1;strokeColor=none;fillColor=none;" parent="1FKGHby47MiAxsP9Uc5e-12" vertex="1">
          <mxGeometry x="10" y="92" width="70" height="30" as="geometry" />
        </mxCell>
        <mxCell id="1FKGHby47MiAxsP9Uc5e-10" value="CLK_CNT" style="text;html=1;align=center;verticalAlign=middle;resizable=0;points=[];autosize=1;strokeColor=none;fillColor=none;" parent="1FKGHby47MiAxsP9Uc5e-12" vertex="1">
          <mxGeometry x="10" y="110" width="80" height="30" as="geometry" />
        </mxCell>
        <mxCell id="1FKGHby47MiAxsP9Uc5e-15" value="" style="triangle;whiteSpace=wrap;html=1;fillColor=none;" parent="1FKGHby47MiAxsP9Uc5e-12" vertex="1">
          <mxGeometry x="10" y="140" width="10" height="10" as="geometry" />
        </mxCell>
        <mxCell id="1FKGHby47MiAxsP9Uc5e-13" value="" style="endArrow=none;html=1;rounded=0;strokeWidth=1;" parent="1FKGHby47MiAxsP9Uc5e-16" edge="1">
          <mxGeometry width="50" height="50" relative="1" as="geometry">
            <mxPoint x="-40" y="40" as="sourcePoint" />
            <mxPoint x="40" y="40" as="targetPoint" />
          </mxGeometry>
        </mxCell>
        <mxCell id="1FKGHby47MiAxsP9Uc5e-65" value="" style="group" parent="1FKGHby47MiAxsP9Uc5e-16" vertex="1" connectable="0">
          <mxGeometry x="240" y="340" width="210" height="110" as="geometry" />
        </mxCell>
        <mxCell id="Cq8n0TCiu43TakanwMMQ-37" style="edgeStyle=orthogonalEdgeStyle;rounded=0;orthogonalLoop=1;jettySize=auto;html=1;exitX=1;exitY=0.5;exitDx=0;exitDy=0;exitPerimeter=0;endArrow=none;endFill=0;" edge="1" parent="1FKGHby47MiAxsP9Uc5e-65" source="1FKGHby47MiAxsP9Uc5e-32">
          <mxGeometry relative="1" as="geometry">
            <mxPoint x="80" y="37.93548387096769" as="targetPoint" />
          </mxGeometry>
        </mxCell>
        <mxCell id="1FKGHby47MiAxsP9Uc5e-32" value="" style="shape=or;whiteSpace=wrap;html=1;align=center;" parent="1FKGHby47MiAxsP9Uc5e-65" vertex="1">
          <mxGeometry x="18" y="20" width="33.33" height="40" as="geometry" />
        </mxCell>
        <mxCell id="1FKGHby47MiAxsP9Uc5e-48" value="" style="group" parent="1FKGHby47MiAxsP9Uc5e-65" vertex="1" connectable="0">
          <mxGeometry x="70" width="140" height="110" as="geometry" />
        </mxCell>
        <mxCell id="1FKGHby47MiAxsP9Uc5e-41" value="" style="rounded=0;whiteSpace=wrap;html=1;fillColor=#FFFFCC;container=0;" parent="1FKGHby47MiAxsP9Uc5e-48" vertex="1">
          <mxGeometry x="10" width="120" height="110" as="geometry" />
        </mxCell>
        <mxCell id="1FKGHby47MiAxsP9Uc5e-42" value="SHIFT REGISTER" style="text;html=1;align=center;verticalAlign=middle;resizable=0;points=[];autosize=1;strokeColor=none;fillColor=none;container=0;" parent="1FKGHby47MiAxsP9Uc5e-48" vertex="1">
          <mxGeometry x="9" width="120" height="30" as="geometry" />
        </mxCell>
        <mxCell id="1FKGHby47MiAxsP9Uc5e-43" value="" style="triangle;whiteSpace=wrap;html=1;fillColor=none;container=0;" parent="1FKGHby47MiAxsP9Uc5e-48" vertex="1">
          <mxGeometry x="10" y="96.58536585365856" width="10" height="13.414634146341465" as="geometry" />
        </mxCell>
        <mxCell id="1FKGHby47MiAxsP9Uc5e-63" style="edgeStyle=orthogonalEdgeStyle;rounded=0;orthogonalLoop=1;jettySize=auto;html=1;strokeWidth=1;endArrow=oval;endFill=1;exitX=0.005;exitY=0.561;exitDx=0;exitDy=0;exitPerimeter=0;" parent="1FKGHby47MiAxsP9Uc5e-48" source="1FKGHby47MiAxsP9Uc5e-44" edge="1">
          <mxGeometry relative="1" as="geometry">
            <mxPoint x="-320" y="-300" as="targetPoint" />
            <Array as="points">
              <mxPoint x="-320" y="90.44444444444446" />
            </Array>
          </mxGeometry>
        </mxCell>
        <mxCell id="1FKGHby47MiAxsP9Uc5e-45" value="CE" style="text;html=1;align=center;verticalAlign=middle;resizable=0;points=[];autosize=1;strokeColor=none;fillColor=none;container=0;" parent="1FKGHby47MiAxsP9Uc5e-48" vertex="1">
          <mxGeometry x="10" y="29.512195121951223" width="40" height="30" as="geometry" />
        </mxCell>
        <mxCell id="1FKGHby47MiAxsP9Uc5e-46" value="OUT [7:0]" style="text;html=1;align=center;verticalAlign=middle;resizable=0;points=[];autosize=1;strokeColor=none;fillColor=none;container=0;" parent="1FKGHby47MiAxsP9Uc5e-48" vertex="1">
          <mxGeometry x="50" y="29.512195121951223" width="80" height="30" as="geometry" />
        </mxCell>
        <mxCell id="1FKGHby47MiAxsP9Uc5e-44" value="DIN" style="text;html=1;align=center;verticalAlign=middle;resizable=0;points=[];autosize=1;strokeColor=none;fillColor=none;container=0;" parent="1FKGHby47MiAxsP9Uc5e-48" vertex="1">
          <mxGeometry x="10" y="69.99609756097561" width="40" height="30" as="geometry" />
        </mxCell>
        <mxCell id="1FKGHby47MiAxsP9Uc5e-62" style="edgeStyle=orthogonalEdgeStyle;rounded=0;orthogonalLoop=1;jettySize=auto;html=1;endArrow=none;endFill=0;strokeWidth=1;exitX=1.006;exitY=0.594;exitDx=0;exitDy=0;exitPerimeter=0;entryX=0;entryY=0.75;entryDx=0;entryDy=0;entryPerimeter=0;" parent="1FKGHby47MiAxsP9Uc5e-16" source="1FKGHby47MiAxsP9Uc5e-6" target="1FKGHby47MiAxsP9Uc5e-32" edge="1">
          <mxGeometry relative="1" as="geometry">
            <mxPoint x="230" y="427" as="targetPoint" />
            <Array as="points">
              <mxPoint x="230" y="40" />
              <mxPoint x="230" y="387" />
            </Array>
          </mxGeometry>
        </mxCell>
        <mxCell id="Cq8n0TCiu43TakanwMMQ-15" style="edgeStyle=orthogonalEdgeStyle;rounded=0;orthogonalLoop=1;jettySize=auto;html=1;exitX=0;exitY=0.75;exitDx=0;exitDy=0;exitPerimeter=0;endArrow=oval;endFill=1;shadow=0;strokeColor=#0000FF;" edge="1" parent="1FKGHby47MiAxsP9Uc5e-16" source="Cq8n0TCiu43TakanwMMQ-10">
          <mxGeometry relative="1" as="geometry">
            <mxPoint x="300" y="380" as="targetPoint" />
            <Array as="points">
              <mxPoint x="210" y="150" />
              <mxPoint x="210" y="410" />
              <mxPoint x="300" y="410" />
            </Array>
          </mxGeometry>
        </mxCell>
        <mxCell id="Cq8n0TCiu43TakanwMMQ-10" value="" style="verticalLabelPosition=bottom;shadow=0;dashed=0;align=center;html=1;verticalAlign=top;shape=mxgraph.electrical.logic_gates.logic_gate;operation=xor;" vertex="1" parent="1FKGHby47MiAxsP9Uc5e-16">
          <mxGeometry x="290" y="120" width="60" height="40" as="geometry" />
        </mxCell>
        <mxCell id="Cq8n0TCiu43TakanwMMQ-14" style="edgeStyle=orthogonalEdgeStyle;rounded=0;orthogonalLoop=1;jettySize=auto;html=1;entryX=0;entryY=0.25;entryDx=0;entryDy=0;entryPerimeter=0;endArrow=none;endFill=0;strokeColor=#0000FF;" edge="1" parent="1FKGHby47MiAxsP9Uc5e-16" source="1FKGHby47MiAxsP9Uc5e-7" target="Cq8n0TCiu43TakanwMMQ-10">
          <mxGeometry relative="1" as="geometry">
            <Array as="points">
              <mxPoint x="250" y="57" />
              <mxPoint x="250" y="130" />
            </Array>
          </mxGeometry>
        </mxCell>
        <mxCell id="1FKGHby47MiAxsP9Uc5e-23" value="" style="group" parent="1FKGHby47MiAxsP9Uc5e-16" vertex="1" connectable="0">
          <mxGeometry x="360" width="140" height="82" as="geometry" />
        </mxCell>
        <mxCell id="1FKGHby47MiAxsP9Uc5e-17" value="" style="rounded=0;whiteSpace=wrap;html=1;fillColor=#FFFFCC;" parent="1FKGHby47MiAxsP9Uc5e-23" vertex="1">
          <mxGeometry x="10" y="10" width="120" height="72" as="geometry" />
        </mxCell>
        <mxCell id="1FKGHby47MiAxsP9Uc5e-19" value="" style="triangle;whiteSpace=wrap;html=1;fillColor=none;" parent="1FKGHby47MiAxsP9Uc5e-23" vertex="1">
          <mxGeometry x="10" y="72" width="10" height="10" as="geometry" />
        </mxCell>
        <mxCell id="1FKGHby47MiAxsP9Uc5e-66" style="edgeStyle=orthogonalEdgeStyle;rounded=0;orthogonalLoop=1;jettySize=auto;html=1;endArrow=oval;endFill=1;exitX=-0.008;exitY=0.587;exitDx=0;exitDy=0;exitPerimeter=0;" parent="1FKGHby47MiAxsP9Uc5e-23" source="1FKGHby47MiAxsP9Uc5e-20" edge="1">
          <mxGeometry relative="1" as="geometry">
            <mxPoint x="-130" y="40" as="targetPoint" />
            <Array as="points">
              <mxPoint x="-60" y="40" />
              <mxPoint x="-130" y="40" />
            </Array>
          </mxGeometry>
        </mxCell>
        <mxCell id="1FKGHby47MiAxsP9Uc5e-20" value="CE" style="text;html=1;align=center;verticalAlign=middle;resizable=0;points=[];autosize=1;strokeColor=none;fillColor=none;" parent="1FKGHby47MiAxsP9Uc5e-23" vertex="1">
          <mxGeometry x="10" y="22" width="40" height="30" as="geometry" />
        </mxCell>
        <mxCell id="1FKGHby47MiAxsP9Uc5e-21" value="RST" style="text;html=1;align=center;verticalAlign=middle;resizable=0;points=[];autosize=1;strokeColor=none;fillColor=none;" parent="1FKGHby47MiAxsP9Uc5e-23" vertex="1">
          <mxGeometry x="10" y="46.66" width="50" height="30" as="geometry" />
        </mxCell>
        <mxCell id="1FKGHby47MiAxsP9Uc5e-22" value="OUT [3:0]" style="text;html=1;align=center;verticalAlign=middle;resizable=0;points=[];autosize=1;strokeColor=none;fillColor=none;" parent="1FKGHby47MiAxsP9Uc5e-23" vertex="1">
          <mxGeometry x="50" y="22" width="80" height="30" as="geometry" />
        </mxCell>
        <mxCell id="Cq8n0TCiu43TakanwMMQ-38" value="CNT" style="text;html=1;align=center;verticalAlign=middle;resizable=0;points=[];autosize=1;strokeColor=none;fillColor=none;" vertex="1" parent="1FKGHby47MiAxsP9Uc5e-23">
          <mxGeometry x="45" width="50" height="30" as="geometry" />
        </mxCell>
        <mxCell id="Cq8n0TCiu43TakanwMMQ-43" value="&lt;span style=&quot;font-size: 11px;&quot;&gt;&lt;font color=&quot;#ff0000&quot;&gt;BIT_CNT&lt;/font&gt;&lt;/span&gt;" style="ellipse;whiteSpace=wrap;html=1;strokeColor=none;fillColor=none;" vertex="1" parent="1FKGHby47MiAxsP9Uc5e-23">
          <mxGeometry x="37.5" y="-12" width="65" height="22" as="geometry" />
        </mxCell>
        <mxCell id="Cq8n0TCiu43TakanwMMQ-1" style="edgeStyle=orthogonalEdgeStyle;rounded=0;orthogonalLoop=1;jettySize=auto;html=1;entryX=0.014;entryY=0.526;entryDx=0;entryDy=0;entryPerimeter=0;endArrow=none;endFill=0;strokeColor=#00CC00;" edge="1" parent="1FKGHby47MiAxsP9Uc5e-16" source="1FKGHby47MiAxsP9Uc5e-22" target="1FKGHby47MiAxsP9Uc5e-9">
          <mxGeometry relative="1" as="geometry">
            <Array as="points">
              <mxPoint x="610" y="37" />
              <mxPoint x="610" y="230" />
              <mxPoint x="10" y="230" />
              <mxPoint x="10" y="108" />
            </Array>
          </mxGeometry>
        </mxCell>
        <mxCell id="1FKGHby47MiAxsP9Uc5e-61" value="" style="group" parent="1" vertex="1" connectable="0">
          <mxGeometry x="390" y="270" width="200" height="82" as="geometry" />
        </mxCell>
        <mxCell id="1FKGHby47MiAxsP9Uc5e-49" value="" style="group" parent="1FKGHby47MiAxsP9Uc5e-61" vertex="1" connectable="0">
          <mxGeometry x="60" width="140" height="82" as="geometry" />
        </mxCell>
        <mxCell id="1FKGHby47MiAxsP9Uc5e-50" value="" style="rounded=0;whiteSpace=wrap;html=1;fillColor=#FFFFCC;" parent="1FKGHby47MiAxsP9Uc5e-49" vertex="1">
          <mxGeometry x="10" y="10" width="120" height="72" as="geometry" />
        </mxCell>
        <mxCell id="1FKGHby47MiAxsP9Uc5e-51" value="CMP" style="text;html=1;align=center;verticalAlign=middle;resizable=0;points=[];autosize=1;strokeColor=none;fillColor=none;" parent="1FKGHby47MiAxsP9Uc5e-49" vertex="1">
          <mxGeometry x="44" width="50" height="30" as="geometry" />
        </mxCell>
        <mxCell id="1FKGHby47MiAxsP9Uc5e-52" value="" style="triangle;whiteSpace=wrap;html=1;fillColor=none;" parent="1FKGHby47MiAxsP9Uc5e-49" vertex="1">
          <mxGeometry x="10" y="72" width="10" height="10" as="geometry" />
        </mxCell>
        <mxCell id="1FKGHby47MiAxsP9Uc5e-53" value="A [4:0]" style="text;html=1;align=center;verticalAlign=middle;resizable=0;points=[];autosize=1;strokeColor=none;fillColor=none;" parent="1FKGHby47MiAxsP9Uc5e-49" vertex="1">
          <mxGeometry x="10" y="22" width="60" height="30" as="geometry" />
        </mxCell>
        <mxCell id="1FKGHby47MiAxsP9Uc5e-55" value="==" style="text;html=1;align=center;verticalAlign=middle;resizable=0;points=[];autosize=1;strokeColor=none;fillColor=none;" parent="1FKGHby47MiAxsP9Uc5e-49" vertex="1">
          <mxGeometry x="90" y="22" width="40" height="30" as="geometry" />
        </mxCell>
        <mxCell id="1FKGHby47MiAxsP9Uc5e-56" value="B [4:0]" style="text;html=1;align=center;verticalAlign=middle;resizable=0;points=[];autosize=1;strokeColor=none;fillColor=none;" parent="1FKGHby47MiAxsP9Uc5e-49" vertex="1">
          <mxGeometry x="10" y="42" width="60" height="30" as="geometry" />
        </mxCell>
        <mxCell id="1FKGHby47MiAxsP9Uc5e-60" style="edgeStyle=orthogonalEdgeStyle;rounded=0;orthogonalLoop=1;jettySize=auto;html=1;exitX=1;exitY=0.5;exitDx=0;exitDy=0;endArrow=none;endFill=0;" parent="1FKGHby47MiAxsP9Uc5e-61" source="1FKGHby47MiAxsP9Uc5e-58" edge="1">
          <mxGeometry relative="1" as="geometry">
            <mxPoint x="70" y="61" as="targetPoint" />
          </mxGeometry>
        </mxCell>
        <mxCell id="1FKGHby47MiAxsP9Uc5e-58" value="&lt;span style=&quot;font-size: 11px;&quot;&gt;01111&lt;/span&gt;" style="ellipse;whiteSpace=wrap;html=1;" parent="1FKGHby47MiAxsP9Uc5e-61" vertex="1">
          <mxGeometry y="50" width="45" height="22" as="geometry" />
        </mxCell>
        <mxCell id="1FKGHby47MiAxsP9Uc5e-71" value="" style="group" parent="1" vertex="1" connectable="0">
          <mxGeometry x="450" y="90" width="25" height="23.33" as="geometry" />
        </mxCell>
        <mxCell id="1FKGHby47MiAxsP9Uc5e-83" style="edgeStyle=orthogonalEdgeStyle;rounded=0;orthogonalLoop=1;jettySize=auto;html=1;endArrow=oval;endFill=1;" parent="1FKGHby47MiAxsP9Uc5e-71" source="1FKGHby47MiAxsP9Uc5e-67" edge="1">
          <mxGeometry relative="1" as="geometry">
            <mxPoint x="-20.000000000000057" y="-10" as="targetPoint" />
          </mxGeometry>
        </mxCell>
        <mxCell id="1FKGHby47MiAxsP9Uc5e-67" value="" style="triangle;whiteSpace=wrap;html=1;" parent="1FKGHby47MiAxsP9Uc5e-71" vertex="1">
          <mxGeometry width="17.5" height="23.33" as="geometry" />
        </mxCell>
        <mxCell id="1FKGHby47MiAxsP9Uc5e-68" value="" style="ellipse;whiteSpace=wrap;html=1;aspect=fixed;" parent="1FKGHby47MiAxsP9Uc5e-71" vertex="1">
          <mxGeometry x="17.5" y="7.91" width="7.5" height="7.5" as="geometry" />
        </mxCell>
        <mxCell id="1FKGHby47MiAxsP9Uc5e-75" style="edgeStyle=orthogonalEdgeStyle;rounded=0;orthogonalLoop=1;jettySize=auto;html=1;entryX=1;entryY=0.5;entryDx=0;entryDy=0;endArrow=none;endFill=0;" parent="1" source="1FKGHby47MiAxsP9Uc5e-21" target="1FKGHby47MiAxsP9Uc5e-68" edge="1">
          <mxGeometry relative="1" as="geometry" />
        </mxCell>
        <mxCell id="1FKGHby47MiAxsP9Uc5e-78" value="" style="group" parent="1" vertex="1" connectable="0">
          <mxGeometry x="540" y="140" width="180" height="82" as="geometry" />
        </mxCell>
        <mxCell id="1FKGHby47MiAxsP9Uc5e-24" value="" style="group" parent="1FKGHby47MiAxsP9Uc5e-78" vertex="1" connectable="0">
          <mxGeometry x="40" width="140" height="82" as="geometry" />
        </mxCell>
        <mxCell id="1FKGHby47MiAxsP9Uc5e-25" value="" style="rounded=0;whiteSpace=wrap;html=1;fillColor=#FFFFCC;" parent="1FKGHby47MiAxsP9Uc5e-24" vertex="1">
          <mxGeometry x="10" y="10" width="120" height="72" as="geometry" />
        </mxCell>
        <mxCell id="1FKGHby47MiAxsP9Uc5e-27" value="" style="triangle;whiteSpace=wrap;html=1;fillColor=none;" parent="1FKGHby47MiAxsP9Uc5e-24" vertex="1">
          <mxGeometry x="10" y="72" width="10" height="10" as="geometry" />
        </mxCell>
        <mxCell id="1FKGHby47MiAxsP9Uc5e-28" value="CE" style="text;html=1;align=center;verticalAlign=middle;resizable=0;points=[];autosize=1;strokeColor=none;fillColor=none;" parent="1FKGHby47MiAxsP9Uc5e-24" vertex="1">
          <mxGeometry x="10" y="22" width="40" height="30" as="geometry" />
        </mxCell>
        <mxCell id="1FKGHby47MiAxsP9Uc5e-29" value="RST" style="text;html=1;align=center;verticalAlign=middle;resizable=0;points=[];autosize=1;strokeColor=none;fillColor=none;" parent="1FKGHby47MiAxsP9Uc5e-24" vertex="1">
          <mxGeometry x="10" y="46.66" width="50" height="30" as="geometry" />
        </mxCell>
        <mxCell id="1FKGHby47MiAxsP9Uc5e-30" value="OUT [4:0]" style="text;html=1;align=center;verticalAlign=middle;resizable=0;points=[];autosize=1;strokeColor=none;fillColor=none;" parent="1FKGHby47MiAxsP9Uc5e-24" vertex="1">
          <mxGeometry x="50" y="22" width="80" height="30" as="geometry" />
        </mxCell>
        <mxCell id="Cq8n0TCiu43TakanwMMQ-41" value="CNT" style="text;html=1;align=center;verticalAlign=middle;resizable=0;points=[];autosize=1;strokeColor=none;fillColor=none;" vertex="1" parent="1FKGHby47MiAxsP9Uc5e-24">
          <mxGeometry x="45" width="50" height="30" as="geometry" />
        </mxCell>
        <mxCell id="1FKGHby47MiAxsP9Uc5e-72" value="" style="group" parent="1FKGHby47MiAxsP9Uc5e-78" vertex="1" connectable="0">
          <mxGeometry y="50" width="25" height="23.33" as="geometry" />
        </mxCell>
        <mxCell id="1FKGHby47MiAxsP9Uc5e-82" style="edgeStyle=orthogonalEdgeStyle;rounded=0;orthogonalLoop=1;jettySize=auto;html=1;endArrow=oval;endFill=1;" parent="1FKGHby47MiAxsP9Uc5e-72" source="1FKGHby47MiAxsP9Uc5e-73" edge="1">
          <mxGeometry relative="1" as="geometry">
            <mxPoint x="-20" y="-10" as="targetPoint" />
          </mxGeometry>
        </mxCell>
        <mxCell id="1FKGHby47MiAxsP9Uc5e-73" value="" style="triangle;whiteSpace=wrap;html=1;align=center;" parent="1FKGHby47MiAxsP9Uc5e-72" vertex="1">
          <mxGeometry width="17.5" height="23.33" as="geometry" />
        </mxCell>
        <mxCell id="1FKGHby47MiAxsP9Uc5e-74" value="" style="ellipse;whiteSpace=wrap;html=1;aspect=fixed;" parent="1FKGHby47MiAxsP9Uc5e-72" vertex="1">
          <mxGeometry x="17.5" y="7.91" width="7.5" height="7.5" as="geometry" />
        </mxCell>
        <mxCell id="1FKGHby47MiAxsP9Uc5e-76" style="edgeStyle=orthogonalEdgeStyle;rounded=0;orthogonalLoop=1;jettySize=auto;html=1;entryX=1;entryY=0.5;entryDx=0;entryDy=0;endArrow=none;endFill=0;" parent="1FKGHby47MiAxsP9Uc5e-78" source="1FKGHby47MiAxsP9Uc5e-29" target="1FKGHby47MiAxsP9Uc5e-74" edge="1">
          <mxGeometry relative="1" as="geometry" />
        </mxCell>
        <mxCell id="1FKGHby47MiAxsP9Uc5e-84" style="edgeStyle=orthogonalEdgeStyle;rounded=0;orthogonalLoop=1;jettySize=auto;html=1;entryX=0.003;entryY=0.598;entryDx=0;entryDy=0;entryPerimeter=0;endArrow=none;endFill=0;strokeColor=#FF0000;exitX=1.012;exitY=0.503;exitDx=0;exitDy=0;exitPerimeter=0;" parent="1" source="1FKGHby47MiAxsP9Uc5e-30" target="1FKGHby47MiAxsP9Uc5e-53" edge="1">
          <mxGeometry relative="1" as="geometry">
            <mxPoint x="450" y="320" as="targetPoint" />
            <Array as="points">
              <mxPoint x="730" y="177" />
              <mxPoint x="730" y="250" />
              <mxPoint x="430" y="250" />
              <mxPoint x="430" y="310" />
            </Array>
          </mxGeometry>
        </mxCell>
        <mxCell id="1FKGHby47MiAxsP9Uc5e-86" style="edgeStyle=orthogonalEdgeStyle;rounded=0;orthogonalLoop=1;jettySize=auto;html=1;exitX=-0.013;exitY=0.218;exitDx=0;exitDy=0;exitPerimeter=0;entryX=0.983;entryY=0.467;entryDx=0;entryDy=0;entryPerimeter=0;endArrow=none;endFill=0;" parent="1" source="1FKGHby47MiAxsP9Uc5e-32" target="1FKGHby47MiAxsP9Uc5e-55" edge="1">
          <mxGeometry relative="1" as="geometry">
            <mxPoint x="400" y="430" as="targetPoint" />
            <Array as="points">
              <mxPoint x="390" y="409" />
              <mxPoint x="390" y="370" />
              <mxPoint x="600" y="370" />
              <mxPoint x="600" y="306" />
            </Array>
          </mxGeometry>
        </mxCell>
        <mxCell id="Cq8n0TCiu43TakanwMMQ-16" style="edgeStyle=orthogonalEdgeStyle;rounded=0;orthogonalLoop=1;jettySize=auto;html=1;entryX=0.007;entryY=0.583;entryDx=0;entryDy=0;entryPerimeter=0;endArrow=none;endFill=0;" edge="1" parent="1" source="Cq8n0TCiu43TakanwMMQ-10" target="1FKGHby47MiAxsP9Uc5e-28">
          <mxGeometry relative="1" as="geometry" />
        </mxCell>
        <mxCell id="Cq8n0TCiu43TakanwMMQ-28" value="DIN" style="shape=step;perimeter=stepPerimeter;whiteSpace=wrap;html=1;fixedSize=1;size=10;" vertex="1" parent="1">
          <mxGeometry x="40" y="70" width="60" height="20" as="geometry" />
        </mxCell>
        <mxCell id="Cq8n0TCiu43TakanwMMQ-33" style="edgeStyle=orthogonalEdgeStyle;rounded=0;orthogonalLoop=1;jettySize=auto;html=1;exitX=0;exitY=0.5;exitDx=0;exitDy=0;entryX=1.013;entryY=0.528;entryDx=0;entryDy=0;entryPerimeter=0;endArrow=none;endFill=0;" edge="1" parent="1" source="Cq8n0TCiu43TakanwMMQ-32" target="1FKGHby47MiAxsP9Uc5e-46">
          <mxGeometry relative="1" as="geometry" />
        </mxCell>
        <mxCell id="Cq8n0TCiu43TakanwMMQ-32" value="DOUT" style="shape=step;perimeter=stepPerimeter;whiteSpace=wrap;html=1;fixedSize=1;size=10;" vertex="1" parent="1">
          <mxGeometry x="690" y="414.51" width="60" height="20" as="geometry" />
        </mxCell>
        <mxCell id="Cq8n0TCiu43TakanwMMQ-36" style="edgeStyle=orthogonalEdgeStyle;rounded=0;orthogonalLoop=1;jettySize=auto;html=1;exitX=0;exitY=0.5;exitDx=0;exitDy=0;entryX=0.997;entryY=0.556;entryDx=0;entryDy=0;entryPerimeter=0;endArrow=none;endFill=0;strokeColor=#FF00FF;" edge="1" parent="1" source="Cq8n0TCiu43TakanwMMQ-34" target="1FKGHby47MiAxsP9Uc5e-8">
          <mxGeometry relative="1" as="geometry">
            <Array as="points">
              <mxPoint x="670" y="510" />
              <mxPoint x="330" y="510" />
              <mxPoint x="330" y="119" />
            </Array>
          </mxGeometry>
        </mxCell>
        <mxCell id="Cq8n0TCiu43TakanwMMQ-34" value="DOUT_VLD" style="shape=step;perimeter=stepPerimeter;whiteSpace=wrap;html=1;fixedSize=1;size=10;" vertex="1" parent="1">
          <mxGeometry x="660" y="500" width="90" height="20" as="geometry" />
        </mxCell>
        <mxCell id="Cq8n0TCiu43TakanwMMQ-42" value="&lt;span style=&quot;font-size: 11px;&quot;&gt;&lt;font color=&quot;#ff0000&quot;&gt;CLK_CNT&lt;/font&gt;&lt;/span&gt;" style="ellipse;whiteSpace=wrap;html=1;strokeColor=none;fillColor=none;" vertex="1" parent="1">
          <mxGeometry x="617.5" y="128" width="65" height="22" as="geometry" />
        </mxCell>
      </root>
    </mxGraphModel>
  </diagram>
</mxfile>
